<?xml version="1.0" encoding="utf-8"?>
<!-- Generator: Adobe Illustrator 23.0.3, SVG Export Plug-In . SVG Version: 6.00 Build 0)  -->
<svg version="1.1" id="Layer_1" xmlns="http://www.w3.org/2000/svg" xmlns:xlink="http://www.w3.org/1999/xlink" x="0px" y="0px"
	 viewBox="0 0 792 612" style="enable-background:new 0 0 792 612;" xml:space="preserve">
<style type="text/css">
	.st0{stroke:#000000;stroke-miterlimit:10;}
	.st1{fill:#E6E7E8;}
	.st2{fill:#FFFFFF;}
	.st3{fill:#A7A9AC;}
	.st4{fill:none;}
</style>
<rect x="91.11" y="157.47" class="st0" width="454.81" height="289.7"/>
<path class="st1" d="M270.49,288.59l47.4-0.02v19.04l-24.91,0.01l-33.43,0.01l-6.87,11.96l-28.55,49.71h14.07l28.55-49.72
	l19.37-0.01h14.06l17.71-0.01v49.74h11.95V185.27L270.49,288.59z M317.89,276.62l-26.47,0.01l26.47-46.07V276.62z"/>
<polyline class="st2" points="270.49,288.59 284.56,288.59 317.89,288.57 "/>
<polygon class="st1" points="294.05,330.24 272.2,368.3 258.13,368.3 279.99,330.24 "/>
<polygon class="st3" points="300.18,319.57 294.05,330.24 279.99,330.24 286.12,319.57 "/>
<line class="st4" x1="301.66" y1="330.24" x2="294.05" y2="330.24"/>
<line class="st4" x1="303.98" y1="328.7" x2="296.38" y2="328.7"/>
</svg>
